<?xml version="1.0" encoding="UTF-8" standalone="no"?>
<!-- Created with Inkscape (http://www.inkscape.org/) -->

<svg
   xmlns:dc="http://purl.org/dc/elements/1.1/"
   xmlns:cc="http://creativecommons.org/ns#"
   xmlns:rdf="http://www.w3.org/1999/02/22-rdf-syntax-ns#"
   xmlns:svg="http://www.w3.org/2000/svg"
   xmlns="http://www.w3.org/2000/svg"
   xmlns:sodipodi="http://sodipodi.sourceforge.net/DTD/sodipodi-0.dtd"
   xmlns:inkscape="http://www.inkscape.org/namespaces/inkscape"
   width="746.43579"
   height="679.44696"
   id="svg2"
   version="1.1"
   inkscape:version="0.47 r22583"
   sodipodi:docname="Novo documento 1">
  <defs
     id="defs4">
    <inkscape:perspective
       sodipodi:type="inkscape:persp3d"
       inkscape:vp_x="0 : 526.18109 : 1"
       inkscape:vp_y="0 : 1000 : 0"
       inkscape:vp_z="744.09448 : 526.18109 : 1"
       inkscape:persp3d-origin="372.04724 : 350.78739 : 1"
       id="perspective10" />
    <inkscape:perspective
       id="perspective3623"
       inkscape:persp3d-origin="0.5 : 0.33333333 : 1"
       inkscape:vp_z="1 : 0.5 : 1"
       inkscape:vp_y="0 : 1000 : 0"
       inkscape:vp_x="0 : 0.5 : 1"
       sodipodi:type="inkscape:persp3d" />
    <inkscape:perspective
       id="perspective3647"
       inkscape:persp3d-origin="0.5 : 0.33333333 : 1"
       inkscape:vp_z="1 : 0.5 : 1"
       inkscape:vp_y="0 : 1000 : 0"
       inkscape:vp_x="0 : 0.5 : 1"
       sodipodi:type="inkscape:persp3d" />
    <inkscape:perspective
       id="perspective3669"
       inkscape:persp3d-origin="0.5 : 0.33333333 : 1"
       inkscape:vp_z="1 : 0.5 : 1"
       inkscape:vp_y="0 : 1000 : 0"
       inkscape:vp_x="0 : 0.5 : 1"
       sodipodi:type="inkscape:persp3d" />
    <inkscape:perspective
       id="perspective3691"
       inkscape:persp3d-origin="0.5 : 0.33333333 : 1"
       inkscape:vp_z="1 : 0.5 : 1"
       inkscape:vp_y="0 : 1000 : 0"
       inkscape:vp_x="0 : 0.5 : 1"
       sodipodi:type="inkscape:persp3d" />
    <inkscape:perspective
       id="perspective3713"
       inkscape:persp3d-origin="0.5 : 0.33333333 : 1"
       inkscape:vp_z="1 : 0.5 : 1"
       inkscape:vp_y="0 : 1000 : 0"
       inkscape:vp_x="0 : 0.5 : 1"
       sodipodi:type="inkscape:persp3d" />
  </defs>
  <sodipodi:namedview
     id="base"
     pagecolor="#ffffff"
     bordercolor="#666666"
     borderopacity="1.0"
     inkscape:pageopacity="0.0"
     inkscape:pageshadow="2"
     inkscape:zoom="0.49497475"
     inkscape:cx="393.29974"
     inkscape:cy="250.27113"
     inkscape:document-units="px"
     inkscape:current-layer="layer1"
     showgrid="false"
     inkscape:window-width="1600"
     inkscape:window-height="838"
     inkscape:window-x="-8"
     inkscape:window-y="-8"
     inkscape:window-maximized="1" />
  <metadata
     id="metadata7">
    <rdf:RDF>
      <cc:Work
         rdf:about="">
        <dc:format>image/svg+xml</dc:format>
        <dc:type
           rdf:resource="http://purl.org/dc/dcmitype/StillImage" />
        <dc:title></dc:title>
      </cc:Work>
    </rdf:RDF>
  </metadata>
  <g
     inkscape:label="Camada 1"
     inkscape:groupmode="layer"
     id="layer1"
     transform="translate(8.4712415,-510.2193)">
    <g
       id="g3777">
      <path
         sodipodi:nodetypes="csssssssssssccsssssscsssz"
         d="m 575.3787,802.56869 c -12.143,14.5794 -5.7356,20.9371 3.9355,22.6356 34.099,5.9886 61.0214,-19.9116 84.9726,-39.0049 31.2669,-24.9252 86.9173,4.4772 62.7687,41.6344 -20.9712,32.2682 -66.9433,32.5802 -101.5845,39.2795 -42.0191,8.126 -24.4982,58.9026 8.7096,60.3141 36.5481,1.5535 67.2247,28.5457 77.4378,63.777 10.0825,34.78091 -0.1462,79.27761 -36.4619,90.18941 -36.9223,11.0941 -82.3172,6.6353 -112.7389,-17.3356 -32.3766,-25.5114 -49.6073,-67.37731 -63.5906,-105.21461 -12.4015,-33.5571 -67.4508,-63.2038 -82.0395,-23.5002 -14.8121,40.3114 -5.5453,87.02461 -5.9514,130.38201 -0.427,45.5911 -28.9016,87.1221 -69.6118,104.6927 -38.8148,14.6245 -85.4705,22.0005 -123.8569,2.1746 -46.1771,-27.2838 -45.1373,-93.3865 -19.2858,-135.1113 23.1917,-37.4318 60.912,-60.14271 94.1497,-87.00671 34.1959,-27.6385 13.3805,-83.8147 -23.5616,-98.8311 -38.7421,-15.7481 -53.7619,19.0321 -86.1412,50.3203 -32.3793,31.2882 -160.196099,56.1481 -183.5534088,-6.0901 C -14.561299,859.8046 30.983781,831.29909 64.227301,823.9352 113.0158,813.128 167.1888,836.0573 211.6339,803.95699 201.2707,775.48869 195.7143,748.5239 195.7143,720.2193 c 0,-113.2184 88.9034,-204.99999 198.5714,-204.99999 109.668,0 198.5714,91.78159 198.5714,204.99999 0,28.3046 -5.3354,67.7699 -17.4784,82.3494 z"
         style="fill:#a57cff;fill-opacity:1;stroke:#000000;stroke-width:10;stroke-linecap:butt;stroke-linejoin:miter;stroke-miterlimit:4;stroke-opacity:1;stroke-dasharray:none"
         id="path3600-1" />
      <path
         sodipodi:nodetypes="csscccsccc"
         id="path3610"
         d="m 606.42857,873.07647 c 0,0 36.26433,-17.5826 53.57143,-27.85714 14.30952,-8.495 29.83326,-15.92081 41.42857,-27.85715 l 24.28572,-25 7.85714,12.14286 L 730,825.21933 c 0,0 -12.85714,18.57142 -15.71428,19.28571 C 711.42857,845.21933 685,855.21933 685,855.21933 l -57.14286,10 -21.42857,7.85714 z"
         style="fill:#6f30ff;fill-opacity:1;stroke:none" />
      <path
         sodipodi:nodetypes="cscsscccscc"
         id="path3608"
         d="m 2.1428571,893.07647 c 0,0 40.2599879,8.72499 60.7142859,10.71428 C 75.182233,904.98943 100,904.50504 100,904.50504 c 0,0 25.94982,-0.2288 38.57143,-2.85714 9.87838,-2.05708 19.10747,-6.50036 28.57143,-10 14.14138,-5.22929 42.14285,-16.42857 42.14285,-16.42857 L 180,908.79075 l -50.71429,20 c 0,0 -54.999996,5.71429 -57.857138,5.71429 -2.857143,0 -49.285715,-9.28571 -49.285715,-9.28571 L 2.1428571,893.07647 z"
         style="fill:#6f30ff;fill-opacity:1;stroke:none" />
      <path
         sodipodi:nodetypes="csssscccccccc"
         id="path3612"
         d="m 502.55089,965.99414 c 10.89251,13.34966 20.92736,27.47317 32.55327,40.15926 13.19536,14.3987 25.67058,30.2307 41.07272,41.8738 13.1281,9.924 28.55554,18.0771 43.9885,23.603 10.84665,3.8838 22.94065,4.5405 34.54012,5.6757 10.53974,1.0315 21.12877,1.5536 31.69315,2.3304 -14.78085,2.6918 -29.50446,5.9324 -44.44671,7.5761 -12.93284,-0.9528 -25.93476,-2.3427 -38.70372,-4.3698 -11.60848,-4.7287 -23.37481,-9.1793 -34.88466,-14.0818 -6.31867,-4.9544 -12.95254,-9.6213 -19.07598,-14.7538 -11.31538,-18.035 -22.79355,-35.9715 -33.26008,-54.51996 -2.92868,-4.99103 -6.16967,-9.84075 -7.49766,-15.55605 -1.99298,-5.97895 -3.98597,-11.9579 -5.97895,-17.93685 z"
         style="fill:#6f30ff;fill-opacity:1;stroke:none" />
      <path
         sodipodi:nodetypes="ccsscccsc"
         id="path3749"
         d="m 229.8097,1176.1059 c 102.50805,-30.4387 164.86246,-100.885 179.80716,-204.05084 0,0 -1.01016,61.61934 0.50507,65.15484 1.51523,3.5355 1.51523,44.4467 -2.0203,49.4975 -3.53554,5.0507 -20.20305,48.4873 -20.20305,48.4873 l -29.7995,26.769 -41.41626,19.698 c 0,0 -43.94163,3.5355 -48.48732,3.5355 -4.54569,0 -38.89087,-7.5761 -38.3858,-9.0913 z"
         style="fill:#6f30ff;fill-opacity:1;stroke:none" />
      <path
         sodipodi:nodetypes="csssssssssssccsssssscsssz"
         d="m 575.37875,802.56864 c -12.14301,14.57947 -5.7356,20.93713 3.93547,22.63562 34.09899,5.98862 61.02139,-19.91157 84.97259,-39.00488 31.26693,-24.92522 86.91728,4.47718 62.76868,41.63439 -20.97121,32.26817 -66.94325,32.58024 -101.58447,39.27949 -42.01915,8.12605 -24.49817,58.90266 8.70956,60.31413 36.54817,1.55346 67.22473,28.54572 77.4378,63.77696 10.08255,34.78095 -0.14619,79.27765 -36.46188,90.18945 -36.92226,11.0941 -82.3172,6.6353 -112.73886,-17.3356 -32.37662,-25.5114 -49.6073,-67.37736 -63.59058,-105.21461 -12.4015,-33.55709 -67.45083,-63.20377 -82.03957,-23.50018 -14.81206,40.31138 -5.54532,87.02459 -5.95137,130.38199 -0.42696,45.5911 -28.90162,87.1221 -69.61184,104.6927 -38.8148,14.6245 -85.47046,22.0005 -123.85688,2.1746 -46.17704,-27.2838 -45.13726,-93.3865 -19.28576,-135.1113 23.1917,-37.4318 60.91202,-60.14273 94.14969,-87.00672 34.1959,-27.63847 13.38053,-83.81468 -23.56166,-98.83114 -38.74201,-15.74806 -53.76189,19.03212 -86.1412,50.32035 -32.3793,31.28822 -160.196065,56.14807 -183.5533717,-6.0901 C -14.561291,859.80456 30.983792,831.29907 64.227344,823.9352 113.01584,813.12794 167.18877,836.05733 211.63395,803.95701 201.27076,775.48869 195.71429,748.52389 195.71429,720.2193 c 0,-113.21837 88.90345,-205 198.57142,-205 109.66797,0 198.57143,91.78163 198.57143,205 0,28.30459 -5.33539,67.76987 -17.47839,82.34934 z"
         style="fill:none;stroke:#000000;stroke-width:10;stroke-linecap:butt;stroke-linejoin:miter;stroke-miterlimit:4;stroke-opacity:1;stroke-dasharray:none"
         id="path3600" />
      <path
         transform="matrix(1.2235994,0,0,0.99188353,-83.394667,7.568801)"
         d="m 379.81734,678.60571 a 38.385796,62.629459 0 1 1 -76.77159,0 38.385796,62.629459 0 1 1 76.77159,0 z"
         sodipodi:ry="62.629459"
         sodipodi:rx="38.385796"
         sodipodi:cy="678.60571"
         sodipodi:cx="341.43155"
         id="path3637-0"
         style="fill:#ffffff;fill-opacity:1;stroke:none"
         sodipodi:type="arc" />
      <path
         transform="matrix(1.2235994,0,0,0.99188353,-83.394667,7.568801)"
         d="m 379.81734,678.60571 a 38.385796,62.629459 0 1 1 -76.77159,0 38.385796,62.629459 0 1 1 76.77159,0 z"
         sodipodi:ry="62.629459"
         sodipodi:rx="38.385796"
         sodipodi:cy="678.60571"
         sodipodi:cx="341.43155"
         id="path3637"
         style="fill:#000000;fill-opacity:0;stroke:#000000;stroke-width:10;stroke-miterlimit:4;stroke-opacity:1;stroke-dasharray:none"
         sodipodi:type="arc" />
      <path
         transform="matrix(0.75252898,0,0,0.61002081,79.443665,279.12721)"
         d="m 379.81734,678.60571 a 38.385796,62.629459 0 1 1 -76.77159,0 38.385796,62.629459 0 1 1 76.77159,0 z"
         sodipodi:ry="62.629459"
         sodipodi:rx="38.385796"
         sodipodi:cy="678.60571"
         sodipodi:cx="341.43155"
         id="path3637-4"
         style="fill:#000000;fill-opacity:1;stroke:none"
         sodipodi:type="arc" />
      <path
         transform="matrix(1.2235994,0,0,0.99188353,38.40741,7.568801)"
         d="m 379.81734,678.60571 a 38.385796,62.629459 0 1 1 -76.77159,0 38.385796,62.629459 0 1 1 76.77159,0 z"
         sodipodi:ry="62.629459"
         sodipodi:rx="38.385796"
         sodipodi:cy="678.60571"
         sodipodi:cx="341.43155"
         id="path3637-0-9"
         style="fill:#ffffff;fill-opacity:1;stroke:none"
         sodipodi:type="arc" />
      <path
         transform="matrix(1.2235994,0,0,0.99188353,38.40741,7.568801)"
         d="m 379.81734,678.60571 a 38.385796,62.629459 0 1 1 -76.77159,0 38.385796,62.629459 0 1 1 76.77159,0 z"
         sodipodi:ry="62.629459"
         sodipodi:rx="38.385796"
         sodipodi:cy="678.60571"
         sodipodi:cx="341.43155"
         id="path3637-48"
         style="fill:#000000;fill-opacity:0;stroke:#000000;stroke-width:10;stroke-miterlimit:4;stroke-opacity:1;stroke-dasharray:none"
         sodipodi:type="arc" />
      <path
         transform="matrix(0.75252898,0,0,0.61002081,197.24574,279.12721)"
         d="m 379.81734,678.60571 a 38.385796,62.629459 0 1 1 -76.77159,0 38.385796,62.629459 0 1 1 76.77159,0 z"
         sodipodi:ry="62.629459"
         sodipodi:rx="38.385796"
         sodipodi:cy="678.60571"
         sodipodi:cx="341.43155"
         id="path3637-4-8"
         style="fill:#000000;fill-opacity:1;stroke:none"
         sodipodi:type="arc" />
    </g>
  </g>
</svg>
